<?xml version="1.0" encoding="UTF-8" standalone="no"?>
<!-- Created with Inkscape (http://www.inkscape.org/) -->

<svg
   version="1.1"
   id="svg133"
   width="122.07787"
   height="123.14569"
   viewBox="0 0 122.07787 123.14569"
   sodipodi:docname="Logo2.svg"
   inkscape:version="1.2 (dc2aedaf03, 2022-05-15)"
   xmlns:inkscape="http://www.inkscape.org/namespaces/inkscape"
   xmlns:sodipodi="http://sodipodi.sourceforge.net/DTD/sodipodi-0.dtd"
   xmlns="http://www.w3.org/2000/svg"
   xmlns:svg="http://www.w3.org/2000/svg">
  <defs
     id="defs137" />
  <sodipodi:namedview
     id="namedview135"
     pagecolor="#ffffff"
     bordercolor="#111111"
     borderopacity="1"
     inkscape:showpageshadow="0"
     inkscape:pageopacity="0"
     inkscape:pagecheckerboard="1"
     inkscape:deskcolor="#d1d1d1"
     showgrid="false"
     inkscape:zoom="4"
     inkscape:cx="77.625001"
     inkscape:cy="46.375"
     inkscape:window-width="1920"
     inkscape:window-height="1051"
     inkscape:window-x="-9"
     inkscape:window-y="-9"
     inkscape:window-maximized="1"
     inkscape:current-layer="g48045" />
  <g
     inkscape:groupmode="layer"
     inkscape:label="Image"
     id="g139"
     transform="translate(-37.184388,-37.188832)">
    <path
       style="fill:#000000;fill-opacity:0.426513;stroke:none;stroke-width:0.398;stroke-dasharray:none;stroke-opacity:1"
       d="M 37.666982,113.40091 112.14465,38.716025 c 0,0 7.77108,10.49165 15.91886,0.47639 0.0493,-0.0606 2.34411,2.35692 3.65898,3.80806 0.81662,0.90127 -1.84387,2.03875 0.16086,3.75444 1.89203,1.61924 2.91223,-0.80927 3.23237,-0.51029 1.08695,1.01512 2.11345,2.26683 3.20555,3.36583 0.55743,0.56095 -1.7842,1.67655 -0.021,3.50825 1.86461,1.93705 2.85,-0.79053 3.43633,-0.21432 1.18555,1.1651 3.52611,3.52611 3.52611,3.52611 0,0 -2.18065,1.426561 -0.51294,3.237961 1.57602,1.71182 3.30985,-0.23128 3.30985,-0.23128 l 3.4988,3.32676 c 0,0 -1.75744,2.26623 -0.31273,3.49351 1.69569,1.4405 3.35913,-0.41273 3.35913,-0.41273 l 3.92793,4.31985 c 0,0 -4.1187,2.65945 -3.96628,7.43656 0.13321,4.17506 4.69578,7.79011 4.69578,7.79011 L 84.407342,160.33452 c 0,0 -3.51246,-5.01381 -8.03862,-4.82835 -3.54092,0.14507 -7.55249,4.05466 -7.55249,4.05466 l -4.06233,-3.84666 c 0,0 1.96284,-1.95278 0.56834,-3.296 -1.89022,-1.82071 -3.58592,0.23953 -3.58592,0.23953 l -3.39352,-3.35463 c 0,0 1.88513,-2.24616 0.40658,-3.5267 -1.65938,-1.43715 -3.4825,0.22981 -3.4825,0.22981 l -3.73588,-3.51491 c 0,0 2.51735,-1.39341 0.69532,-3.37054 -1.55701,-1.68956 -3.41473,0.34177 -3.41473,0.34177 l -3.53141,-3.22205 c 0,0 1.88078,-1.87728 0.40246,-3.44243 -1.65499,-1.7522 -3.44243,0.26987 -3.44243,0.26987 l -4.14777,-4.14776 c 0,0 4.21602,-3.33076 4.07411,-7.60493 -0.15883,-4.7838 -4.49956,-7.91429 -4.49956,-7.91429 z"
       id="path467-5"
       sodipodi:nodetypes="ccssssssscsccsccsccsccsccsccsccsccscc" />
    <g
       id="g48045">
      <path
         style="fill:#ffd600;fill-opacity:1;stroke:none;stroke-width:0.398;stroke-dasharray:none;stroke-opacity:1"
         d="M 37.184388,111.87372 111.66206,37.188832 c 0,0 7.77108,10.491649 15.91886,0.476389 0.0493,-0.06055 2.34411,2.356926 3.65898,3.808064 0.81662,0.901265 -1.84387,2.038748 0.16086,3.754443 1.89203,1.619239 2.91223,-0.809277 3.23237,-0.510296 1.08695,1.015125 2.11345,2.26683 3.20555,3.365828 0.55743,0.560955 -1.7842,1.676551 -0.021,3.508254 1.86461,1.937051 2.85,-0.790528 3.43633,-0.214315 1.18555,1.165098 3.52611,3.526106 3.52611,3.526106 0,0 -2.18065,1.426565 -0.51294,3.23796 1.57602,1.711817 3.30985,-0.231283 3.30985,-0.231283 l 3.4988,3.326759 c 0,0 -1.75744,2.266237 -0.31273,3.493518 1.69569,1.440501 3.35913,-0.412731 3.35913,-0.412731 l 3.92793,4.319852 c 0,0 -4.1187,2.659449 -3.96628,7.436554 0.13321,4.175058 4.69578,7.790107 4.69578,7.790107 L 83.924744,158.80734 c 0,0 -3.512465,-5.01381 -8.038625,-4.82836 -3.540922,0.14507 -7.552489,4.05467 -7.552489,4.05467 l -4.062329,-3.84666 c 0,0 1.96284,-1.95278 0.568337,-3.296 -1.89022,-1.82071 -3.585915,0.23953 -3.585915,0.23953 L 57.8602,147.77589 c 0,0 1.885134,-2.24616 0.406586,-3.5267 -1.659379,-1.43715 -3.482501,0.22981 -3.482501,0.22981 l -3.73588,-3.51491 c 0,0 2.51735,-1.39342 0.695322,-3.37054 -1.557016,-1.68956 -3.414737,0.34177 -3.414737,0.34177 l -3.531409,-3.22205 c 0,0 1.880786,-1.87728 0.402462,-3.44243 -1.654992,-1.7522 -3.442432,0.26987 -3.442432,0.26987 l -4.147771,-4.14777 c 0,0 4.216026,-3.33076 4.074112,-7.60493 -0.158834,-4.7838 -4.499557,-7.91429 -4.499557,-7.91429 z"
         id="path467"
         sodipodi:nodetypes="ccssssssscsccsccsccsccsccsccsccsccscc" />
      <g
         id="g24002"
         style="fill:#d38600;fill-opacity:0"
         transform="translate(0,0.25)">
        <path
           style="fill:#d38600;fill-opacity:1;stroke:none;stroke-width:0.398;stroke-dasharray:none;stroke-opacity:1"
           d="m 49.541669,108.80606 c 0,0 3.715528,2.63605 3.8444,6.38827 0.159318,4.63868 -3.280599,6.66953 -3.280599,6.66953 l 23.875577,23.84433 c 0,0 3.106813,-3.30148 6.61082,-3.19443 3.627327,0.11082 6.73582,3.68057 6.73582,3.68057 L 146.48852,86.908493 c 0,0 -3.85556,-2.49705 -3.62565,-6.327674 0.21343,-3.556073 2.62435,-6.577675 2.62435,-6.577675 L 122,50.15625 c 0,0 -2.2287,2.953505 -6.73437,2.921875 C 110.6033,53.045396 108.65625,49.625 108.65625,49.625 Z"
           id="path2234"
           sodipodi:nodetypes="csccsccsccscc" />
        <path
           style="fill:#ffd600;fill-opacity:1;stroke:none;stroke-width:0.398;stroke-dasharray:none;stroke-opacity:1"
           d="m 52.502678,108.89444 c 0,0 3.045407,3.282 3.041053,6.37691 -0.0051,3.61313 -2.333946,6.4394 -2.333946,6.4394 l 20.992233,20.99224 c 0,0 2.302805,-2.51844 6.386058,-2.40859 3.859958,0.10384 6.474446,2.89472 6.474446,2.89472 L 143.3659,86.885746 c 0,0 -2.60396,-2.822091 -2.74004,-6.363962 -0.10779,-2.805816 2.2981,-6.452349 2.2981,-6.452349 L 121.71075,52.812037 c 0,0 -1.14989,2.620765 -6.38605,2.541166 -3.81827,-0.05804 -6.47445,-2.894719 -6.47445,-2.894719 z"
           id="path2236"
           sodipodi:nodetypes="csccsccsccscc" />
      </g>
      <path
         style="fill:none;fill-opacity:1;stroke:none;stroke-width:0.398;stroke-dasharray:none;stroke-opacity:1"
         id="path24674"
         d="m 75.820453,73.850533 c -0.0067,0.08676 -9.89e-4,0.175402 -0.02014,0.260292 -0.203016,0.89987 -0.818909,1.598217 -1.3836,2.29234 -0.11434,0.107623 -0.22868,0.215246 -0.343019,0.322869 0,0 12.33686,7.431343 12.33686,7.431343 v 0 c 0.104716,-0.147642 0.209432,-0.295283 0.314149,-0.442925 0.226215,-0.320615 0.434802,-0.653487 0.662928,-0.972746 0.413037,-0.57804 0.926069,-1.068243 1.422299,-1.5731 0,0 -12.989476,-7.318073 -12.989477,-7.318073 z" />
      <path
         style="fill:none;fill-opacity:1;stroke:none;stroke-width:0.398;stroke-dasharray:none;stroke-opacity:1"
         id="path24676"
         d="m 87.685295,69.379918 c 0.112127,0.794898 0.293633,1.583065 0.33638,2.384692 0.125772,2.358566 -0.149914,5.188959 -0.310434,7.504552 -0.208435,3.006803 -0.44017,6.011997 -0.638531,9.019481 -0.09381,1.42235 -0.17009,2.845802 -0.255135,4.268703 0,0 8.014894,4.114785 8.014894,4.114785 v 0 c 0.0029,-1.446252 -0.06911,-2.894599 0.0088,-4.338756 0.07952,-1.474614 0.237875,-2.946504 0.462794,-4.406033 0.559017,-3.627544 1.558386,-7.217963 3.483984,-10.374958 0.349689,-0.573311 0.818429,-1.064916 1.227643,-1.597375 0,0 -12.330366,-6.575091 -12.330366,-6.575091 z" />
      <path
         style="fill:#e19203;fill-opacity:0.383285;stroke:none;stroke-width:0.398;stroke-dasharray:none;stroke-opacity:1"
         d="M 37.642981,127.40468 158.04419,68.647097 c 0,0 -4.35897,3.039433 -3.92834,7.598327 0.36094,3.821194 4.63415,7.660826 4.63415,7.660826 l -74.805243,74.8769 c 0,0 -3.370655,-4.46818 -7.339634,-4.79609 -3.673118,-0.30347 -8.261508,4.03203 -8.261508,4.03203 l -4.085248,-3.79799 c 0,0 2.218979,-2.15717 0.182223,-3.64057 -1.674403,-1.2195 -3.216153,0.5514 -3.216153,0.5514 l -3.411612,-3.34532 c 0,0 1.991171,-2.15416 0.334221,-3.59906 -1.533477,-1.33723 -3.355993,0.29003 -3.355993,0.29003 l -3.713388,-3.50347 c 0,0 2.460246,-1.44741 0.610271,-3.40035 -1.53573,-1.6212 -3.345106,0.37825 -3.345106,0.37825 l -3.500325,-3.25078 c 0,0 1.940204,-2.20383 0.168246,-3.66825 -1.577565,-1.30376 -3.238003,0.50364 -3.238003,0.50364 z"
         id="path26503"
         sodipodi:nodetypes="ccsccsccsccsccsccscc" />
      <rect
         style="fill:#c5ced9;fill-opacity:0.38431373;stroke-width:0.398"
         id="rect301"
         width="1.75"
         height="122.5"
         x="162.18439"
         y="37.688831" />
    </g>
  </g>
</svg>
