<?xml version="1.0" encoding="UTF-8" standalone="no"?>
<!-- Created with Inkscape (http://www.inkscape.org/) -->

<svg
   version="1.1"
   id="svg133"
   width="122.07787"
   height="123.14569"
   viewBox="0 0 122.07787 123.14569"
   sodipodi:docname="Logo2v2.svg"
   inkscape:version="1.2 (dc2aedaf03, 2022-05-15)"
   xmlns:inkscape="http://www.inkscape.org/namespaces/inkscape"
   xmlns:sodipodi="http://sodipodi.sourceforge.net/DTD/sodipodi-0.dtd"
   xmlns="http://www.w3.org/2000/svg"
   xmlns:svg="http://www.w3.org/2000/svg">
  <defs
     id="defs137">
    <rect
       x="147"
       y="-12.75"
       width="81.750001"
       height="107.5"
       id="rect10027" />
  </defs>
  <sodipodi:namedview
     id="namedview135"
     pagecolor="#ffffff"
     bordercolor="#111111"
     borderopacity="1"
     inkscape:showpageshadow="0"
     inkscape:pageopacity="0"
     inkscape:pagecheckerboard="1"
     inkscape:deskcolor="#d1d1d1"
     showgrid="false"
     inkscape:zoom="4"
     inkscape:cx="77.625001"
     inkscape:cy="67.125001"
     inkscape:window-width="1920"
     inkscape:window-height="1051"
     inkscape:window-x="-9"
     inkscape:window-y="-9"
     inkscape:window-maximized="1"
     inkscape:current-layer="g48045" />
  <g
     inkscape:groupmode="layer"
     inkscape:label="Image"
     id="g139"
     transform="translate(-37.184388,-37.188832)">
    <path
       style="fill:#000000;fill-opacity:0.426513;stroke:none;stroke-width:0.398;stroke-dasharray:none;stroke-opacity:1"
       d="M 112.3403,160.3229 37.655375,85.84524 c 0,0 10.49165,-7.77108 0.47639,-15.91886 -0.0606,-0.0493 2.35692,-2.34411 3.80806,-3.65898 0.90127,-0.81662 2.03875,1.84387 3.75444,-0.16086 1.61924,-1.89203 -0.80927,-2.91223 -0.51029,-3.23237 1.01512,-1.08695 2.26683,-2.11345 3.36583,-3.20555 0.56095,-0.55743 1.67655,1.7842 3.50825,0.021 1.93705,-1.86461 -0.79053,-2.85 -0.21432,-3.43633 1.1651,-1.18555 3.52611,-3.52611 3.52611,-3.52611 0,0 1.42656,2.18065 3.23796,0.51294 1.71182,-1.57602 -0.23128,-3.30985 -0.23128,-3.30985 l 3.32676,-3.4988 c 0,0 2.26623,1.75744 3.49351,0.31273 1.4405,-1.69569 -0.41273,-3.35913 -0.41273,-3.35913 l 4.31985,-3.92793 c 0,0 2.65945,4.1187 7.43656,3.96628 4.17506,-0.13321 7.79011,-4.69578 7.79011,-4.69578 l 74.943325,74.8549 c 0,0 -5.01381,3.51246 -4.82835,8.03862 0.14507,3.54092 4.05466,7.55249 4.05466,7.55249 l -3.84666,4.06233 c 0,0 -1.95278,-1.96284 -3.296,-0.56834 -1.82071,1.89022 0.23953,3.58592 0.23953,3.58592 l -3.35463,3.39352 c 0,0 -2.24616,-1.88513 -3.5267,-0.40658 -1.43715,1.65938 0.22981,3.4825 0.22981,3.4825 l -3.51491,3.73588 c 0,0 -1.39341,-2.51735 -3.37054,-0.69532 -1.68956,1.55701 0.34177,3.41473 0.34177,3.41473 l -3.22205,3.53141 c 0,0 -1.87728,-1.88078 -3.44243,-0.40246 -1.7522,1.65499 0.26987,3.44243 0.26987,3.44243 l -4.14776,4.14777 c 0,0 -3.33076,-4.21602 -7.60493,-4.07411 -4.7838,0.15883 -7.91429,4.49956 -7.91429,4.49956 z"
       id="path467-5"
       sodipodi:nodetypes="ccssssssscsccsccsccsccsccsccsccsccscc" />
    <g
       id="g48045">
      <path
         style="fill:#ffd600;fill-opacity:1;stroke:none;stroke-width:0.398;stroke-dasharray:none;stroke-opacity:1"
         d="M 111.8577,158.79572 37.172775,84.318049 c 0,0 10.49165,-7.77108 0.47639,-15.91886 -0.0606,-0.0493 2.35693,-2.34411 3.80806,-3.65898 0.90127,-0.81662 2.03875,1.84387 3.75445,-0.16086 1.61924,-1.89203 -0.80928,-2.91223 -0.5103,-3.23237 1.01513,-1.08695 2.26683,-2.11345 3.36583,-3.20555 0.56095,-0.55743 1.67655,1.7842 3.50825,0.021 1.93705,-1.86461 -0.79053,-2.85 -0.21431,-3.43633 1.1651,-1.18555 3.5261,-3.52611 3.5261,-3.52611 0,0 1.42657,2.18065 3.23796,0.51294 1.71182,-1.57602 -0.23128,-3.30985 -0.23128,-3.30985 l 3.32676,-3.4988 c 0,0 2.26624,1.75744 3.49352,0.31273 1.4405,-1.69569 -0.41273,-3.35913 -0.41273,-3.35913 l 4.31985,-3.92793 c 0,0 2.65945,4.1187 7.43655,3.96628 4.17506,-0.13321 7.79011,-4.69578 7.79011,-4.69578 l 74.943335,74.854911 c 0,0 -5.01381,3.51247 -4.82836,8.03863 0.14507,3.54092 4.05467,7.55249 4.05467,7.55249 l -3.84666,4.06232 c 0,0 -1.95278,-1.96284 -3.296,-0.56833 -1.82071,1.89022 0.23953,3.58591 0.23953,3.58591 l -3.35463,3.39353 c 0,0 -2.24616,-1.88514 -3.5267,-0.40659 -1.43715,1.65938 0.22981,3.4825 0.22981,3.4825 l -3.51491,3.73588 c 0,0 -1.39342,-2.51735 -3.37054,-0.69532 -1.68956,1.55701 0.34177,3.41474 0.34177,3.41474 l -3.22205,3.5314 c 0,0 -1.87728,-1.88078 -3.44243,-0.40246 -1.7522,1.65499 0.26987,3.44243 0.26987,3.44243 l -4.14777,4.14778 c 0,0 -3.33076,-4.21603 -7.60493,-4.07412 -4.7838,0.15884 -7.91429,4.49956 -7.91429,4.49956 z"
         id="path467"
         sodipodi:nodetypes="ccssssssscsccsccsccsccsccsccsccsccscc" />
      <g
         id="g24002"
         style="fill:#d38600;fill-opacity:0"
         transform="rotate(-90,98.140098,98.034662)">
        <path
           style="fill:#d38600;fill-opacity:1;stroke:none;stroke-width:0.398;stroke-dasharray:none;stroke-opacity:1"
           d="m 49.541669,108.80606 c 0,0 3.715528,2.63605 3.8444,6.38827 0.159318,4.63868 -3.280599,6.66953 -3.280599,6.66953 l 23.875577,23.84433 c 0,0 3.106813,-3.30148 6.61082,-3.19443 3.627327,0.11082 6.73582,3.68057 6.73582,3.68057 L 146.48852,86.908493 c 0,0 -3.85556,-2.49705 -3.62565,-6.327674 0.21343,-3.556073 2.62435,-6.577675 2.62435,-6.577675 L 122,50.15625 c 0,0 -2.2287,2.953505 -6.73437,2.921875 C 110.6033,53.045396 108.65625,49.625 108.65625,49.625 Z"
           id="path2234"
           sodipodi:nodetypes="csccsccsccscc" />
        <path
           style="fill:#ffd600;fill-opacity:1;stroke:none;stroke-width:0.398;stroke-dasharray:none;stroke-opacity:1"
           d="m 52.502678,108.89444 c 0,0 3.045407,3.282 3.041053,6.37691 -0.0051,3.61313 -2.333946,6.4394 -2.333946,6.4394 l 20.992233,20.99224 c 0,0 2.302805,-2.51844 6.386058,-2.40859 3.859958,0.10384 6.474446,2.89472 6.474446,2.89472 L 143.3659,86.885746 c 0,0 -2.60396,-2.822091 -2.74004,-6.363962 -0.10779,-2.805816 2.2981,-6.452349 2.2981,-6.452349 L 121.71075,52.812037 c 0,0 -1.14989,2.620765 -6.38605,2.541166 -3.81827,-0.05804 -6.47445,-2.894719 -6.47445,-2.894719 z"
           id="path2236"
           sodipodi:nodetypes="csccsccsccscc" />
      </g>
      <path
         style="fill:none;fill-opacity:1;stroke:none;stroke-width:0.398;stroke-dasharray:none;stroke-opacity:1"
         id="path24674"
         d="m 76.288435,84.625352 c 0.0868,0.007 0.1754,9.9e-4 0.26029,0.0201 0.89987,0.20302 1.59822,0.81891 2.29234,1.3836 0.10763,0.11434 0.21525,0.22868 0.32287,0.34302 0,0 7.43135,-12.33686 7.43135,-12.33686 v 0 c -0.14765,-0.10471 -0.29529,-0.20943 -0.44293,-0.31415 -0.32061,-0.22621 -0.65349,-0.4348 -0.97275,-0.66293 -0.57804,-0.41303 -1.06824,-0.92606 -1.5731,-1.42229 0,0 -7.31807,12.98947 -7.31807,12.98947 z" />
      <path
         style="fill:none;fill-opacity:1;stroke:none;stroke-width:0.398;stroke-dasharray:none;stroke-opacity:1"
         id="path24676"
         d="m 79.770635,88.757464 c 0.79489,-0.11213 1.58306,-0.29363 2.38469,-0.33638 2.35856,-0.12577 5.18896,0.14991 7.50455,0.31043 3.0068,0.20844 6.012,0.440169 9.01948,0.63854 1.422385,0.0938 2.845835,0.17009 4.268735,0.255129 0,0 4.11479,-8.014889 4.11479,-8.014889 v 0 c -1.44625,-0.003 -2.8946,0.0691 -4.33876,-0.009 -1.47461,-0.0795 -2.946535,-0.23788 -4.406065,-0.4628 -3.62754,-0.55901 -7.21796,-1.55838 -10.37496,-3.48398 -0.57331,-0.34969 -1.06491,-0.818431 -1.59737,-1.227643 0,0 -6.57509,12.330363 -6.57509,12.330363 z" />
      <text
         xml:space="preserve"
         style="font-size:13.6662px;text-align:center;text-anchor:middle;fill:#d08800;fill-opacity:1;stroke:none;stroke-width:0.453261;stroke-dasharray:none;stroke-opacity:1"
         x="141.47058"
         y="0.96202981"
         id="text37433"
         transform="rotate(47.70949)"><tspan
           sodipodi:role="line"
           id="tspan37431"
           x="141.47058"
           y="0.96202981"
           style="font-style:normal;font-variant:normal;font-weight:bold;font-stretch:normal;font-family:sans-serif;-inkscape-font-specification:'sans-serif Bold';fill:#d08800;fill-opacity:1;stroke-width:0.453261"><tspan
             style="font-size:21.5777px;stroke-width:0.453261"
             id="tspan55533">Q</tspan><tspan
             id="tspan55543"
             style="font-size:14.3852px;stroke-width:0.453261">UEDA</tspan><tspan
             style="font-style:normal;font-variant:normal;font-weight:bold;font-stretch:normal;font-family:sans-serif;-inkscape-font-specification:'sans-serif Bold';fill:#de7a5f;fill-opacity:1;stroke-width:0.453261"
             id="tspan44969"><tspan
               style="font-size:21.5777px;stroke-width:0.453261"
               id="tspan55545">Y</tspan><tspan
               style="font-size:14.3852px;stroke-width:0.453261"
               id="tspan55553">A</tspan></tspan></tspan></text>
      <path
         style="fill:#e19203;fill-opacity:0.383285;stroke:none;stroke-width:0.398;stroke-dasharray:none;stroke-opacity:1"
         d="m 68.256945,37.91162 58.757615,120.4012 c 0,0 -3.03943,-4.35897 -7.59832,-3.92834 -3.8212,0.36094 -7.66083,4.63415 -7.66083,4.63415 L 36.878475,84.21339 c 0,0 4.46818,-3.37065 4.79609,-7.33963 0.30347,-3.67312 -4.03203,-8.26151 -4.03203,-8.26151 l 3.79799,-4.08525 c 0,0 2.15717,2.21898 3.64057,0.18222 1.2195,-1.6744 -0.5514,-3.21615 -0.5514,-3.21615 l 3.34532,-3.41161 c 0,0 2.15416,1.99117 3.59906,0.33422 1.33723,-1.53348 -0.29003,-3.35599 -0.29003,-3.35599 l 3.50347,-3.71339 c 0,0 1.44741,2.46025 3.40035,0.61027 1.6212,-1.53573 -0.37825,-3.34511 -0.37825,-3.34511 l 3.25078,-3.50032 c 0,0 2.20383,1.9402 3.66825,0.16825 1.30376,-1.57757 -0.50364,-3.23801 -0.50364,-3.23801 z"
         id="path26503"
         sodipodi:nodetypes="ccsccsccsccsccsccscc" />
      <text
         xml:space="preserve"
         transform="translate(37.184388,37.188832)"
         id="text10025"
         style="fill:#c5ced9;text-align:center;stroke-width:0.398;-inkscape-font-specification:'sans-serif Bold';font-family:sans-serif;font-weight:bold;font-size:16px;fill-opacity:0.38431373;white-space:pre;shape-inside:url(#rect10027)" />
    </g>
  </g>
</svg>
